<svg width="28" height="29" viewBox="0 0 28 29" fill="none" xmlns="http://www.w3.org/2000/svg">
<path d="M14 28C16.5712 28 19.0846 27.2082 21.2224 25.7248C23.3602 24.2414 25.0265 22.133 26.0104 19.6662C26.9944 17.1994 27.2518 14.485 26.7502 11.8663C26.2486 9.24754 25.0105 6.84207 23.1924 4.95406C21.3743 3.06605 19.0579 1.78031 16.5362 1.2594C14.0144 0.738504 11.4006 1.00585 9.02511 2.02763C6.64967 3.04941 4.61935 4.77974 3.19089 6.99981C1.76244 9.21987 1 11.83 1 14.5C1 16.732 1.52 18.8365 2.44444 20.6905L1 28L8.03878 26.5C9.82411 27.46 11.8521 28 14 28Z" stroke="black" stroke-width="1.66667" stroke-linecap="round" stroke-linejoin="round"/>
</svg>
