<svg width="30" height="30" viewBox="0 0 30 30" fill="none" xmlns="http://www.w3.org/2000/svg">
<path d="M29.3489 14.4446L15.5557 0.651407C15.3501 0.444154 15.1054 0.279838 14.8357 0.168012C14.566 0.0561851 14.2768 -0.000921453 13.9849 1.12431e-05H1.11113C0.816446 1.12431e-05 0.533828 0.117076 0.325452 0.325452C0.117076 0.533828 1.12431e-05 0.816446 1.12431e-05 1.11113V13.9849C-0.000921453 14.2768 0.0561851 14.566 0.168012 14.8357C0.279838 15.1054 0.444154 15.3501 0.651407 15.5557L14.4446 29.3489C14.651 29.5553 14.896 29.7191 15.1656 29.8308C15.4353 29.9425 15.7243 30 16.0162 30C16.308 30 16.597 29.9425 16.8667 29.8308C17.1363 29.7191 17.3813 29.5553 17.5877 29.3489L29.3489 17.5877C29.5553 17.3813 29.7191 17.1363 29.8308 16.8667C29.9425 16.597 30 16.308 30 16.0162C30 15.7243 29.9425 15.4353 29.8308 15.1656C29.7191 14.896 29.5553 14.651 29.3489 14.4446ZM16.0155 27.7781L2.22226 13.9849V2.22226H13.9849L27.7781 16.0155L16.0155 27.7781ZM8.889 7.22231C8.889 7.55195 8.79125 7.87419 8.60811 8.14827C8.42497 8.42236 8.16467 8.63598 7.86012 8.76213C7.55558 8.88827 7.22046 8.92128 6.89716 8.85697C6.57385 8.79266 6.27688 8.63393 6.04379 8.40084C5.8107 8.16775 5.65196 7.87077 5.58765 7.54747C5.52334 7.22416 5.55635 6.88905 5.6825 6.5845C5.80864 6.27995 6.02227 6.01965 6.29635 5.83651C6.57044 5.65338 6.89267 5.55563 7.22231 5.55563C7.66434 5.55563 8.08827 5.73122 8.40084 6.04379C8.7134 6.35635 8.889 6.78028 8.889 7.22231Z" fill="black"/>
</svg>
