<svg width="26" height="26" viewBox="0 0 26 26" fill="none" xmlns="http://www.w3.org/2000/svg">
<path fill-rule="evenodd" clip-rule="evenodd" d="M13 25.75C14.6744 25.75 16.3323 25.4202 17.8792 24.7795C19.4261 24.1387 20.8317 23.1996 22.0156 22.0156C23.1996 20.8317 24.1387 19.4261 24.7795 17.8792C25.4202 16.3323 25.75 14.6744 25.75 13C25.75 11.3256 25.4202 9.66769 24.7795 8.12079C24.1387 6.57388 23.1996 5.16833 22.0156 3.98439C20.8317 2.80044 19.4261 1.86128 17.8792 1.22054C16.3323 0.579788 14.6744 0.25 13 0.25C9.61849 0.25 6.37548 1.5933 3.98439 3.98439C1.5933 6.37548 0.25 9.61849 0.25 13C0.25 16.3815 1.5933 19.6245 3.98439 22.0156C6.37548 24.4067 9.61849 25.75 13 25.75ZM11.2759 7.31917L19.2716 11.7618C19.4923 11.8846 19.6762 12.0641 19.8043 12.2818C19.9323 12.4995 19.9999 12.7474 19.9999 13C19.9999 13.2526 19.9323 13.5005 19.8043 13.7182C19.6762 13.9359 19.4923 14.1154 19.2716 14.2382L11.2759 18.6808C11.017 18.8247 10.725 18.8985 10.4288 18.8948C10.1327 18.8911 9.84258 18.8101 9.58735 18.6598C9.33211 18.5095 9.12058 18.2951 8.97371 18.0379C8.82683 17.7807 8.74972 17.4895 8.75 17.1933V8.80667C8.74972 8.51046 8.82683 8.21933 8.97371 7.9621C9.12058 7.70488 9.33211 7.49049 9.58735 7.34019C9.84258 7.18988 10.1327 7.10887 10.4288 7.10519C10.725 7.1015 11.017 7.17526 11.2759 7.31917Z" fill="#2E60FF"/>
</svg>
